<svg width="206" height="204" viewBox="0 0 206 204" fill="none" xmlns="http://www.w3.org/2000/svg">
<circle cx="2" cy="2" r="2" fill="#ABB2BF"/>
<circle cx="22" cy="2" r="2" fill="#ABB2BF"/>
<circle cx="42" cy="2" r="2" fill="#ABB2BF"/>
<circle cx="62" cy="2" r="2" fill="#ABB2BF"/>
<circle cx="2" cy="22" r="2" fill="#ABB2BF"/>
<circle cx="22" cy="22" r="2" fill="#ABB2BF"/>
<circle cx="42" cy="22" r="2" fill="#ABB2BF"/>
<circle cx="62" cy="22" r="2" fill="#ABB2BF"/>
<circle cx="2" cy="42" r="2" fill="#ABB2BF"/>
<circle cx="22" cy="42" r="2" fill="#ABB2BF"/>
<circle cx="42" cy="42" r="2" fill="#ABB2BF"/>
<circle cx="62" cy="42" r="2" fill="#ABB2BF"/>
<circle cx="2" cy="62" r="2" fill="#ABB2BF"/>
<circle cx="22" cy="62" r="2" fill="#ABB2BF"/>
<circle cx="42" cy="62" r="2" fill="#ABB2BF"/>
<circle cx="62" cy="62" r="2" fill="#ABB2BF"/>
<mask id="path-17-outside-1_52_1850" maskUnits="userSpaceOnUse" x="89" y="89" width="59" height="115" fill="black">
<rect fill="white" x="89" y="89" width="59" height="115"/>
<path fill-rule="evenodd" clip-rule="evenodd" d="M90 90H118.25V118.25V146.5V174.75H146.5V203H118.25H90V174.75V146.5V118.25V90Z"/>
</mask>
<path d="M118.25 90H119.25V89H118.25V90ZM90 90V89H89V90H90ZM118.25 174.75H117.25V175.75H118.25V174.75ZM146.5 174.75H147.5V173.75H146.5V174.75ZM146.5 203V204H147.5V203H146.5ZM90 203H89V204H90V203ZM118.25 89H90V91H118.25V89ZM119.25 118.25V90H117.25V118.25H119.25ZM119.25 146.5V118.25H117.25V146.5H119.25ZM119.25 174.75V146.5H117.25V174.75H119.25ZM118.25 175.75H146.5V173.75H118.25V175.75ZM145.5 174.75V203H147.5V174.75H145.5ZM146.5 202H118.25V204H146.5V202ZM90 204H118.25V202H90V204ZM89 174.75V203H91V174.75H89ZM89 146.5V174.75H91V146.5H89ZM89 118.25V146.5H91V118.25H89ZM89 90V118.25H91V90H89Z" fill="#C778DD" mask="url(#path-17-outside-1_52_1850)"/>
<mask id="path-19-outside-2_52_1850" maskUnits="userSpaceOnUse" x="146.586" y="89" width="59" height="115" fill="black">
<rect fill="white" x="146.586" y="89" width="59" height="115"/>
<path fill-rule="evenodd" clip-rule="evenodd" d="M147.586 90H175.836H204.086V118.663H175.836V146.224H204.086V174.888H175.836V203H147.586V174.888V174.337V146.776V146.224V118.663V118.112V90Z"/>
</mask>
<path d="M147.586 90V89H146.586V90H147.586ZM204.086 90H205.086V89H204.086V90ZM204.086 118.663V119.663H205.086V118.663H204.086ZM175.836 118.663V117.663H174.836V118.663H175.836ZM175.836 146.224H174.836V147.224H175.836V146.224ZM204.086 146.224H205.086V145.224H204.086V146.224ZM204.086 174.888V175.888H205.086V174.888H204.086ZM175.836 174.888V173.888H174.836V174.888H175.836ZM175.836 203V204H176.836V203H175.836ZM147.586 203H146.586V204H147.586V203ZM175.836 89H147.586V91H175.836V89ZM204.086 89H175.836V91H204.086V89ZM205.086 118.663V90H203.086V118.663H205.086ZM175.836 119.663H204.086V117.663H175.836V119.663ZM176.836 146.224V118.663H174.836V146.224H176.836ZM204.086 145.224H175.836V147.224H204.086V145.224ZM205.086 174.888V146.224H203.086V174.888H205.086ZM175.836 175.888H204.086V173.888H175.836V175.888ZM174.836 174.888V203H176.836V174.888H174.836ZM175.836 202H147.586V204H175.836V202ZM148.586 203V174.888H146.586V203H148.586ZM148.586 174.888V174.337H146.586V174.888H148.586ZM146.586 146.776V174.337H148.586V146.776H146.586ZM146.586 146.224V146.776H148.586V146.224H146.586ZM146.586 118.663V146.224H148.586V118.663H146.586ZM146.586 118.112V118.663H148.586V118.112H146.586ZM146.586 90V118.112H148.586V90H146.586Z" fill="#C778DD" mask="url(#path-19-outside-2_52_1850)"/>
</svg>
