<svg width="159" height="157" viewBox="0 0 159 157" fill="none" xmlns="http://www.w3.org/2000/svg">
<mask id="path-1-outside-1_64_1298" maskUnits="userSpaceOnUse" x="0" y="0" width="80" height="157" fill="black">
<rect fill="white" width="80" height="157"/>
<path fill-rule="evenodd" clip-rule="evenodd" d="M1 1H39.75V39.75V78.5V117.25H78.5V156H39.75H1V117.25V78.5V39.75V1Z"/>
</mask>
<path d="M39.75 1H40.75V0H39.75V1ZM1 1V0H0V1H1ZM39.75 117.25H38.75V118.25H39.75V117.25ZM78.5 117.25H79.5V116.25H78.5V117.25ZM78.5 156V157H79.5V156H78.5ZM1 156H0V157H1V156ZM39.75 0H1V2H39.75V0ZM40.75 39.75V1H38.75V39.75H40.75ZM40.75 78.5V39.75H38.75V78.5H40.75ZM40.75 117.25V78.5H38.75V117.25H40.75ZM39.75 118.25H78.5V116.25H39.75V118.25ZM77.5 117.25V156H79.5V117.25H77.5ZM78.5 155H39.75V157H78.5V155ZM1 157H39.75V155H1V157ZM0 117.25V156H2V117.25H0ZM0 78.5V117.25H2V78.5H0ZM0 39.75V78.5H2V39.75H0ZM0 1V39.75H2V1H0Z" fill="#C778DD" mask="url(#path-1-outside-1_64_1298)"/>
<mask id="path-3-outside-2_64_1298" maskUnits="userSpaceOnUse" x="78.9904" y="0" width="80" height="157" fill="black">
<rect fill="white" x="78.9904" width="80" height="157"/>
<path fill-rule="evenodd" clip-rule="evenodd" d="M79.9904 1H118.74H157.49V40.3171H118.74V78.1219H157.49V117.439H118.74V156H79.9904V117.439V116.683V78.8781V78.1219V40.3171V39.561V1Z"/>
</mask>
<path d="M79.9904 1V0H78.9904V1H79.9904ZM157.49 1H158.49V0H157.49V1ZM157.49 40.3171V41.3171H158.49V40.3171H157.49ZM118.74 40.3171V39.3171H117.74V40.3171H118.74ZM118.74 78.1219H117.74V79.1219H118.74V78.1219ZM157.49 78.1219H158.49V77.1219H157.49V78.1219ZM157.49 117.439V118.439H158.49V117.439H157.49ZM118.74 117.439V116.439H117.74V117.439H118.74ZM118.74 156V157H119.74V156H118.74ZM79.9904 156H78.9904V157H79.9904V156ZM118.74 0H79.9904V2H118.74V0ZM157.49 0H118.74V2H157.49V0ZM158.49 40.3171V1H156.49V40.3171H158.49ZM118.74 41.3171H157.49V39.3171H118.74V41.3171ZM119.74 78.1219V40.3171H117.74V78.1219H119.74ZM157.49 77.1219H118.74V79.1219H157.49V77.1219ZM158.49 117.439V78.1219H156.49V117.439H158.49ZM118.74 118.439H157.49V116.439H118.74V118.439ZM117.74 117.439V156H119.74V117.439H117.74ZM118.74 155H79.9904V157H118.74V155ZM80.9904 156V117.439H78.9904V156H80.9904ZM80.9904 117.439V116.683H78.9904V117.439H80.9904ZM78.9904 78.8781V116.683H80.9904V78.8781H78.9904ZM78.9904 78.1219V78.8781H80.9904V78.1219H78.9904ZM78.9904 40.3171V78.1219H80.9904V40.3171H78.9904ZM78.9904 39.561V40.3171H80.9904V39.561H78.9904ZM78.9904 1V39.561H80.9904V1H78.9904Z" fill="#C778DD" mask="url(#path-3-outside-2_64_1298)"/>
</svg>
